<svg width="17" height="8" viewBox="0 0 17 8" fill="none" xmlns="http://www.w3.org/2000/svg">
<g clip-path="url(#clip0_209_390)">
<path d="M15.3999 4.56842C15.3644 4.60888 15.3258 4.64303 15.2853 4.67273L12.5723 7.77312C12.3077 8.07546 11.8783 8.0756 11.6135 7.77298C11.3487 7.4705 11.3487 6.97991 11.6135 6.67715L13.9499 4.00694L11.6014 1.32281C11.3366 1.02034 11.3366 0.529889 11.6014 0.226982C11.7339 0.0754561 11.9075 -1.95503e-05 12.0808 -1.95503e-05C12.254 -1.95503e-05 12.4278 0.0754561 12.5601 0.226982L15.2853 3.34172C15.3258 3.37142 15.3646 3.40557 15.3999 3.44604C15.5353 3.60072 15.6006 3.80448 15.5973 4.00723C15.6006 4.20998 15.5353 4.41359 15.3999 4.56842Z" fill="black"/>
</g>
<rect y="3" width="10" height="2" rx="1" fill="black"/>
<defs>
<clipPath id="clip0_209_390">
<rect width="7" height="8" fill="white" transform="matrix(-1 0 0 -1 17 8)"/>
</clipPath>
</defs>
</svg>
