<svg width="18" height="18" viewBox="0 0 18 18" fill="none" xmlns="http://www.w3.org/2000/svg">
<path d="M5.74196 13.7598C4.7041 13.7598 3.86279 14.6011 3.86279 15.639C3.86279 16.6768 4.70414 17.5181 5.74196 17.5181C6.77982 17.5181 7.62113 16.6768 7.62113 15.639C7.62117 14.6011 6.77982 13.7598 5.74196 13.7598ZM5.74196 16.683C5.16538 16.683 4.69799 16.2156 4.69799 15.639C4.69799 15.0624 5.16538 14.595 5.74196 14.595C6.31854 14.595 6.78593 15.0624 6.78593 15.639C6.78597 16.2156 6.31854 16.683 5.74196 16.683Z" fill="white"/>
<path d="M13.6763 13.7598C12.6384 13.7598 11.7971 14.6011 11.7971 15.639C11.7971 16.6768 12.6385 17.5181 13.6763 17.5181C14.7141 17.5181 15.5555 16.6768 15.5555 15.639C15.5555 14.6011 14.7141 13.7598 13.6763 13.7598ZM13.6763 16.683C13.0997 16.683 12.6323 16.2156 12.6323 15.639C12.6323 15.0624 13.0997 14.595 13.6763 14.595C14.2529 14.595 14.7203 15.0624 14.7203 15.639C14.7203 16.2156 14.2529 16.683 13.6763 16.683Z" fill="white"/>
<path d="M17.9149 2.79793C17.8279 2.70293 17.7089 2.64346 17.5808 2.63087L3.98806 2.44296L3.61222 1.29455C3.34745 0.526862 2.62856 0.00859253 1.81654 0H0.417597C0.186958 0 0 0.186957 0 0.417597C0 0.648237 0.186958 0.835194 0.417597 0.835194H1.81654C2.27059 0.845225 2.6704 1.13677 2.81879 1.566L5.47053 9.56297L5.26175 10.0432C5.02887 10.6437 5.09881 11.3196 5.44967 11.8597C5.79717 12.3902 6.38178 12.7176 7.01567 12.7367H15.1379C15.3686 12.7367 15.5555 12.5497 15.5555 12.3191C15.5555 12.0885 15.3686 11.9015 15.1379 11.9015H7.01563C6.65766 11.8925 6.32815 11.7042 6.13867 11.4004C5.95131 11.1002 5.91283 10.7305 6.03428 10.3981L6.20134 10.0223L14.9917 9.10357C15.9573 8.99722 16.7516 8.29495 16.9753 7.34965L17.9776 3.15282C18.0228 3.03196 17.9988 2.89604 17.9149 2.79793ZM16.161 7.16178C16.0254 7.77029 15.5088 8.21914 14.8874 8.26841L6.20134 9.16623L4.2595 3.27815L17.0588 3.46607L16.161 7.16178Z" fill="white"/>
</svg>
