<svg width="0" height="0" class="hidden">
  <symbol fill="none" xmlns="http://www.w3.org/2000/svg" viewBox="0 0 18 18" id="home">
    <path
      d="M9.81839 0.839174L9.81831 0.839089C9.59903 0.619737 9.31007 0.5 9.00011 0.5C8.69007 0.5 8.40109 0.619665 8.1817 0.83903L7.82816 0.485458L8.1817 0.839033L0.844129 8.1757C0.844129 8.1757 0.843892 8.17594 0.843322 8.17652L0.842217 8.17763L0.83582 8.18416C0.387261 8.63526 0.388147 9.36821 0.837963 9.81798L0.838045 9.81807C1.04394 10.024 1.31442 10.1428 1.60557 10.1553L1.61915 10.1559L1.63268 10.1572L1.63523 10.1573H1.9279H2.4279V10.6573V16.0608C2.4279 16.8538 3.07402 17.5 3.8676 17.5H6.74054C6.7557 17.5 6.76794 17.4877 6.76794 17.4727V13.2363C6.76794 12.4722 7.38877 11.8515 8.15284 11.8515H9.84738C10.6115 11.8515 11.2323 12.4722 11.2323 13.2363V17.4727C11.2323 17.4877 11.2445 17.5 11.2597 17.5H14.1326C14.9262 17.5 15.5723 16.8538 15.5723 16.0608V10.6573V10.1573H16.0723H16.3437C16.6536 10.1573 16.9426 10.0376 17.1622 9.81818C17.6123 9.36759 17.6126 8.63367 17.1629 8.18269L9.81839 0.839174ZM9.81839 0.839174L17.1617 8.18145L17.1617 8.18147L17.1626 8.18233L9.81839 0.839174Z"></path>
  </symbol>
  <symbol xmlns="http://www.w3.org/2000/svg" viewBox="0 0 18 22" id="menu">
    <path
      d="M17.5714 3.66655H15.4286V0.366531C15.4285 0.164039 15.2365 -9.16289e-05 14.9998 3.83786e-08C14.959 3.83786e-08 14.9184 0.00504174 14.8791 0.014896L0.307714 3.68159C0.299143 3.68159 0.292714 3.68892 0.284143 3.69149C0.262339 3.69905 0.241232 3.70812 0.221143 3.71862C0.195214 3.73049 0.170839 3.74465 0.148286 3.76079C0.131678 3.77399 0.116196 3.78819 0.102 3.80332C0.0831964 3.8228 0.0666965 3.84379 0.0527143 3.86602C0.0425893 3.88316 0.0339642 3.90095 0.0269999 3.91919C0.0170892 3.94499 0.0107143 3.97167 0.00814288 3.99875C0.00814288 4.01085 0 4.02112 0 4.03322V21.6333C0 21.8358 0.191893 22 0.428571 22H17.5714C17.8081 22 18 21.8358 18 21.6333V4.03322C18 3.83068 17.8082 3.66655 17.5714 3.66655ZM14.5714 0.856401V3.66655H3.40457L14.5714 0.856401ZM17.1429 21.2667H0.857143V4.39989H17.1429V21.2667Z"></path>
    <path
      d="M15.8571 7.83327H2.1428C1.90613 7.83327 1.71423 7.99745 1.71423 8.19994C1.71423 8.40244 1.90613 8.56661 2.1428 8.56661H15.8571C16.0938 8.56661 16.2857 8.40244 16.2857 8.19994C16.2857 7.99745 16.0938 7.83327 15.8571 7.83327Z"></path>
    <path
      d="M15.8571 13.0333H2.1428C1.90613 13.0333 1.71423 13.1975 1.71423 13.4C1.71423 13.6025 1.90613 13.7666 2.1428 13.7666H15.8571C16.0938 13.7666 16.2857 13.6025 16.2857 13.4C16.2857 13.1975 16.0938 13.0333 15.8571 13.0333Z"></path>
    <path
      d="M15.8571 18.2333H2.1428C1.90613 18.2333 1.71423 18.3975 1.71423 18.6C1.71423 18.8025 1.90613 18.9666 2.1428 18.9666H15.8571C16.0938 18.9666 16.2857 18.8025 16.2857 18.6C16.2857 18.3975 16.0938 18.2333 15.8571 18.2333Z"></path>
  </symbol>
  <symbol xmlns="http://www.w3.org/2000/svg" viewBox="0 0 18 18" id="setting">
    <path
      d="M16.8261 7.04348H15.361C15.2382 6.64239 15.0773 6.255 14.8821 5.886L15.9171 4.851C16.1386 4.62952 16.2607 4.33448 16.2607 4.02026C16.2607 3.70643 16.1386 3.41139 15.9171 3.18991L14.8097 2.08252C14.3671 1.63996 13.5923 1.63878 13.149 2.08252L12.114 3.11752C11.7454 2.92226 11.3576 2.76183 10.9565 2.63857V1.17391C10.9565 0.526696 10.4298 0 9.78261 0H8.21739C7.57017 0 7.04348 0.526696 7.04348 1.17391V2.63896C6.64239 2.76222 6.255 2.92265 5.886 3.11791L4.85061 2.08291C4.39278 1.62509 3.64774 1.62509 3.18991 2.08291L2.08213 3.1903C1.6247 3.64813 1.6247 4.39317 2.08213 4.851L3.11713 5.88639C2.92187 6.255 2.76143 6.64278 2.63817 7.04387H1.17391C0.526696 7.04387 0 7.57056 0 8.21778V9.783C0 10.4298 0.526696 10.9565 1.17391 10.9565H2.63896C2.76222 11.3576 2.92265 11.745 3.11791 12.114L2.08291 13.1494C1.62509 13.6072 1.62509 14.3523 2.08291 14.8101L3.1903 15.9179C3.64813 16.3753 4.39317 16.3753 4.851 15.9179L5.88639 14.8829C6.255 15.0781 6.64278 15.2386 7.04387 15.3618V16.8261C7.04387 17.4733 7.57056 18 8.21778 18H9.783C10.4302 18 10.9569 17.4733 10.9569 16.8261V15.361C11.358 15.2378 11.7458 15.0773 12.1144 14.8821L13.1494 15.9175C13.5931 16.3608 14.3679 16.36 14.8101 15.9175L15.9175 14.8101C16.139 14.5886 16.261 14.2936 16.261 13.9797C16.261 13.6655 16.139 13.3709 15.9175 13.1494L14.8825 12.114C15.0777 11.7454 15.2382 11.3576 15.3614 10.9565H16.8261C17.4733 10.9565 18 10.4298 18 9.78261V8.21739C18 7.57017 17.4733 7.04348 16.8261 7.04348ZM17.2174 9.78261C17.2174 9.99822 17.0421 10.1739 16.8261 10.1739H15.0652C14.8868 10.1739 14.731 10.2948 14.6864 10.4674C14.5479 11.0015 14.337 11.5114 14.0588 11.9825C13.9684 12.1363 13.993 12.332 14.119 12.458L15.3634 13.7027C15.437 13.7763 15.4777 13.8745 15.4777 13.9797C15.4777 14.085 15.437 14.1832 15.3634 14.2568L14.256 15.3642C14.1089 15.5113 13.8494 15.5113 13.7019 15.3642L12.4576 14.1198C12.3316 13.9934 12.1359 13.9692 11.9817 14.0596C11.5114 14.3374 11.0015 14.5487 10.467 14.6868C10.2948 14.731 10.1739 14.8868 10.1739 15.0652V16.8261C10.1739 17.0417 9.99861 17.2174 9.78261 17.2174H8.21739C8.00178 17.2174 7.82609 17.0417 7.82609 16.8261V15.0652C7.82609 14.8868 7.70517 14.731 7.53261 14.6864C6.99848 14.5483 6.48861 14.3374 6.01748 14.0592C5.95565 14.0224 5.88717 14.0048 5.8187 14.0048C5.71735 14.0048 5.61717 14.0439 5.54165 14.1194L4.2973 15.3638C4.1443 15.5164 3.89622 15.5164 3.74322 15.3638L2.63583 14.2564C2.48283 14.1034 2.48283 13.8549 2.63583 13.7023L3.88017 12.458C4.00657 12.3316 4.03122 12.1359 3.94043 11.9825C3.66261 11.5114 3.4513 11.0019 3.31317 10.4674C3.26896 10.2948 3.11322 10.1739 2.93478 10.1739H1.17391C0.958304 10.1739 0.782609 9.99822 0.782609 9.78261V8.21739C0.782609 8.00178 0.958304 7.82609 1.17391 7.82609H2.93478C3.11322 7.82609 3.26896 7.70517 3.31357 7.53261C3.4517 6.99848 3.66261 6.48861 3.94083 6.01748C4.03161 5.8637 4.00696 5.66804 3.88057 5.54204L2.63622 4.2977C2.48361 4.14509 2.48361 3.89661 2.63622 3.74361L3.74361 2.63622C3.89661 2.48322 4.1447 2.48361 4.2977 2.63622L5.54204 3.88057C5.66843 4.00696 5.8637 4.032 6.01748 3.94083C6.48861 3.663 6.99809 3.4517 7.53261 3.31357C7.70517 3.26896 7.82609 3.11322 7.82609 2.93478V1.17391C7.82609 0.958304 8.00178 0.782609 8.21739 0.782609H9.78261C9.99861 0.782609 10.1739 0.958304 10.1739 1.17391V2.93478C10.1739 3.11322 10.2948 3.26896 10.4674 3.31357C11.0019 3.4517 11.5118 3.663 11.9821 3.94083C12.1363 4.03161 12.332 4.00735 12.458 3.88057L13.7023 2.63622C13.8498 2.4883 14.1093 2.4887 14.2564 2.63622L15.3638 3.74361C15.4373 3.81717 15.478 3.91578 15.478 4.02065C15.478 4.12552 15.4373 4.22413 15.3638 4.2977L14.1194 5.54204C13.9934 5.66843 13.9684 5.86409 14.0592 6.01748C14.3374 6.48861 14.5483 6.99809 14.6868 7.53261C14.731 7.70517 14.8868 7.82609 15.0652 7.82609H16.8261C17.0421 7.82609 17.2174 8.00178 17.2174 8.21739V9.78261Z"></path>
    <path
      d="M9.00001 5.47826C7.05836 5.47826 5.47827 7.05835 5.47827 9C5.47827 10.9417 7.05836 12.5217 9.00001 12.5217C10.9421 12.5217 12.5217 10.9417 12.5217 9C12.5217 7.05835 10.9421 5.47826 9.00001 5.47826ZM9.00001 11.7391C7.48958 11.7391 6.26088 10.5104 6.26088 9C6.26088 7.48957 7.48958 6.26087 9.00001 6.26087C10.5101 6.26087 11.7391 7.48957 11.7391 9C11.7391 10.5104 10.5101 11.7391 9.00001 11.7391Z"></path>
  </symbol>
  <symbol xmlns="http://www.w3.org/2000/svg" viewBox="0 0 18 20" id="trending">
    <path
      d="M17.9658 11.9058L17.9487 11.7101C17.6738 8.72768 16.0073 6.85802 14.5371 5.2089C13.1758 3.68185 12 2.36315 12 0.417401C12 0.261157 11.895 0.118349 11.7285 0.0467114C11.5615 -0.0253172 11.3608 -0.0135208 11.209 0.078468C9.00098 1.39514 7.1587 3.61431 6.51516 5.73174C6.06839 7.2059 6.00928 8.86314 6.00098 9.95767C3.96192 9.59472 3.50002 7.0529 3.49514 7.02524C3.47217 6.89341 3.37552 6.77865 3.23489 6.716C3.09281 6.65416 2.9258 6.64967 2.78175 6.70908C2.67483 6.75221 0.157219 7.81826 0.0107342 12.0751C0.000468576 12.2167 0 12.3583 0 12.5003C0 16.6355 4.03758 20 9 20C13.9624 20 18 16.6355 18 12.5003C18 12.2928 17.9829 12.0991 17.9658 11.9058ZM9 19.1667C7.34569 19.1667 6 17.9721 6 16.5036C6 16.4536 5.99953 16.4031 6.00389 16.3413C6.02391 15.722 6.16505 15.2993 6.31983 15.0181C6.60989 15.5373 7.12889 16.0146 7.97072 16.0146C8.24709 16.0146 8.47073 15.8282 8.47073 15.5979C8.47073 15.0046 8.48541 14.3203 8.66264 13.7026C8.82037 13.1545 9.1973 12.5723 9.67486 12.1052C9.88725 12.7114 10.3013 13.2021 10.7056 13.6811C11.2843 14.3663 11.8824 15.0746 11.9874 16.2827C11.9937 16.3543 12.0001 16.4263 12.0001 16.5036C12 17.9721 10.6543 19.1667 9 19.1667ZM12.1599 18.6223C12.6789 18.0325 13 17.3035 13 16.5036C13 16.4056 12.9927 16.3144 12.978 16.144C12.8594 14.7837 12.1499 13.9431 11.5235 13.2014C10.9898 12.5699 10.5293 12.0243 10.5293 11.2504C10.5293 11.0921 10.4219 10.9476 10.252 10.8773C10.083 10.8064 9.87895 10.8223 9.72806 10.918C8.76909 11.5218 7.96927 12.5382 7.68998 13.5086C7.54739 14.0062 7.49761 14.5445 7.48003 14.9872C7.13334 14.6764 7.02591 14.1002 7.02497 14.0925C7.00252 13.9586 6.90389 13.8418 6.75984 13.7796C6.61678 13.7178 6.44541 13.7161 6.30136 13.778C6.17536 13.8317 5.06845 14.3606 5.00498 16.3063C5.00058 16.3723 5.00011 16.4382 5.00011 16.5037C5.00011 17.3035 5.3212 18.0326 5.8402 18.6224C2.99658 17.5992 1.00012 15.2411 1.00012 12.5004C1.00012 12.3754 0.999656 12.2509 1.00987 12.1122C1.0958 9.61468 2.05481 8.37613 2.68078 7.82971C3.11728 9.13173 4.26084 10.8337 6.50011 10.8337C6.77648 10.8337 7.00012 10.6474 7.00012 10.4171C7.00012 9.02267 7.03772 7.4114 7.485 5.93603C7.9928 4.26452 9.38391 2.45959 11.0631 1.23772C11.3419 3.02234 12.5084 4.33089 13.7345 5.70572C15.192 7.34058 16.6989 9.03119 16.9513 11.7687L16.9684 11.9681C16.984 12.1415 17.0002 12.3144 17.0002 12.5003C17 15.2411 15.0036 17.5991 12.1599 18.6223Z"></path>
  </symbol>
</svg>